<?xml version="1.0" encoding="UTF-8" standalone="no"?>
<!DOCTYPE svg PUBLIC "-//W3C//DTD SVG 1.1//EN"
 "http://www.w3.org/Graphics/SVG/1.1/DTD/svg11.dtd">
<!-- Generated by graphviz version 2.40.1 (20161225.0304)
 -->
<!-- Title: Bumon Pages: 1 -->
<svg width="514pt" height="592pt"
 viewBox="0.00 0.00 513.50 592.00" xmlns="http://www.w3.org/2000/svg" xmlns:xlink="http://www.w3.org/1999/xlink">
<g id="graph0" class="graph" transform="scale(1 1) rotate(0) translate(4 588)">
<title>Bumon</title>
<polygon fill="#ffffff" stroke="transparent" points="-4,4 -4,-588 509.5,-588 509.5,4 -4,4"/>
<!-- Bumon -->
<g id="node1" class="node">
<title>Bumon</title>
<polygon fill="#efefef" stroke="transparent" points="49.5,-105.5 49.5,-140.5 247.5,-140.5 247.5,-105.5 49.5,-105.5"/>
<polygon fill="none" stroke="#000000" points="49.5,-105.5 49.5,-140.5 247.5,-140.5 247.5,-105.5 49.5,-105.5"/>
<text text-anchor="start" x="56.2085" y="-118.3" font-family="Arial Bold" font-size="18.00" fill="#000000">Bumon</text>
<text text-anchor="start" x="113.2235" y="-118.3" font-family="Arial" font-size="14.00" fill="#000000">    </text>
<text text-anchor="start" x="147.4283" y="-118.3" font-family="Arial" font-size="14.00" fill="#666666">[BASE TABLE]</text>
<polygon fill="none" stroke="#000000" points="49.5,-75.5 49.5,-105.5 247.5,-105.5 247.5,-75.5 49.5,-75.5"/>
<text text-anchor="start" x="56.5" y="-86.9" font-family="Arial" font-size="14.00" fill="#000000">id </text>
<text text-anchor="start" x="71.2798" y="-86.9" font-family="Arial" font-size="14.00" fill="#666666">[int unsigned]</text>
<polygon fill="none" stroke="#000000" points="49.5,-45.5 49.5,-75.5 247.5,-75.5 247.5,-45.5 49.5,-45.5"/>
<text text-anchor="start" x="56.5" y="-56.9" font-family="Arial" font-size="14.00" fill="#000000">name </text>
<text text-anchor="start" x="95.399" y="-56.9" font-family="Arial" font-size="14.00" fill="#666666">[varchar(50)]</text>
<polygon fill="none" stroke="#000000" stroke-width="3" points="48,-44.5 48,-142.5 249,-142.5 249,-44.5 48,-44.5"/>
</g>
<!-- Syain -->
<g id="node2" class="node">
<title>Syain</title>
<polygon fill="#efefef" stroke="transparent" points="43.5,-505.5 43.5,-540.5 252.5,-540.5 252.5,-505.5 43.5,-505.5"/>
<polygon fill="none" stroke="#000000" points="43.5,-505.5 43.5,-540.5 252.5,-540.5 252.5,-505.5 43.5,-505.5"/>
<text text-anchor="start" x="61.7106" y="-518.3" font-family="Arial Bold" font-size="18.00" fill="#000000">Syain</text>
<text text-anchor="start" x="106.7214" y="-518.3" font-family="Arial" font-size="14.00" fill="#000000">    </text>
<text text-anchor="start" x="140.9262" y="-518.3" font-family="Arial" font-size="14.00" fill="#666666">[BASE TABLE]</text>
<polygon fill="none" stroke="#000000" points="43.5,-475.5 43.5,-505.5 252.5,-505.5 252.5,-475.5 43.5,-475.5"/>
<text text-anchor="start" x="50.5" y="-486.9" font-family="Arial" font-size="14.00" fill="#000000">id    </text>
<text text-anchor="start" x="95.594" y="-486.9" font-family="Arial" font-size="14.00" fill="#666666">[int unsigned]</text>
<polygon fill="none" stroke="#000000" points="43.5,-445.5 43.5,-475.5 252.5,-475.5 252.5,-445.5 43.5,-445.5"/>
<text text-anchor="start" x="50.5" y="-456.9" font-family="Arial" font-size="14.00" fill="#000000">name    </text>
<text text-anchor="start" x="119.7132" y="-456.9" font-family="Arial" font-size="14.00" fill="#666666">[varchar(50)]</text>
<polygon fill="none" stroke="#000000" points="43.5,-415.5 43.5,-445.5 252.5,-445.5 252.5,-415.5 43.5,-415.5"/>
<text text-anchor="start" x="50.5" y="-426.9" font-family="Arial" font-size="14.00" fill="#000000">bumonId    </text>
<text text-anchor="start" x="139.169" y="-426.9" font-family="Arial" font-size="14.00" fill="#666666">[int unsigned]</text>
<polygon fill="none" stroke="#000000" points="43.5,-385.5 43.5,-415.5 252.5,-415.5 252.5,-385.5 43.5,-385.5"/>
<text text-anchor="start" x="50.3689" y="-396.9" font-family="Arial" font-size="14.00" fill="#000000">yakusyokuId    </text>
<text text-anchor="start" x="162.3773" y="-396.9" font-family="Arial" font-size="14.00" fill="#666666">[int unsigned]</text>
<polygon fill="none" stroke="#000000" points="43.5,-355.5 43.5,-385.5 252.5,-385.5 252.5,-355.5 43.5,-355.5"/>
<text text-anchor="start" x="50.5" y="-366.9" font-family="Arial" font-size="14.00" fill="#000000">kihonkyu    </text>
<text text-anchor="start" x="139.9418" y="-366.9" font-family="Arial" font-size="14.00" fill="#666666">[int]</text>
<polygon fill="none" stroke="#000000" points="43.5,-325.5 43.5,-355.5 252.5,-355.5 252.5,-325.5 43.5,-325.5"/>
<text text-anchor="start" x="50.5" y="-336.9" font-family="Arial" font-size="14.00" fill="#000000">nyusyabi    </text>
<text text-anchor="start" x="139.9418" y="-336.9" font-family="Arial" font-size="14.00" fill="#666666">[date]</text>
<polygon fill="none" stroke="#000000" points="43.5,-295.5 43.5,-325.5 252.5,-325.5 252.5,-295.5 43.5,-295.5"/>
<text text-anchor="start" x="50.5" y="-306.9" font-family="Arial" font-size="14.00" fill="#000000">taisyabi    </text>
<text text-anchor="start" x="132.1564" y="-306.9" font-family="Arial" font-size="14.00" fill="#666666">[date]</text>
<polygon fill="none" stroke="#000000" points="43.5,-265.5 43.5,-295.5 252.5,-295.5 252.5,-265.5 43.5,-265.5"/>
<text text-anchor="start" x="50.5" y="-276.9" font-family="Arial" font-size="14.00" fill="#000000">updatedAt    </text>
<text text-anchor="start" x="148.5182" y="-276.9" font-family="Arial" font-size="14.00" fill="#666666">[date]</text>
</g>
<!-- Syain&#45;&gt;Bumon -->
<g id="edge1" class="edge">
<title>Syain:bumonId&#45;&gt;Bumon:id</title>
<path fill="none" stroke="#000000" d="M262.7401,-429.8858C342.1058,-419.9115 309.4304,-290.9147 252.5,-223 193.6359,-152.7785 108.3641,-257.2215 49.5,-187 21.9477,-154.1317 6.6111,-90.5 49.5,-90.5"/>
<polygon fill="#000000" stroke="#000000" points="262.4821,-429.9011 252.2305,-426.0081 257.491,-430.2006 252.5,-430.5 252.5,-430.5 252.5,-430.5 257.491,-430.2006 252.7695,-434.9919 262.4821,-429.9011 262.4821,-429.9011"/>
<text text-anchor="start" x="259.7715" y="-440.5" font-family="Arial" font-size="10.00" fill="#000000">FOREIGN KEY (bumonId) REFERENCES Bumon (id)</text>
</g>
</g>
</svg>
