<?xml version="1.0" encoding="UTF-8" standalone="no"?>
<!DOCTYPE svg PUBLIC "-//W3C//DTD SVG 1.1//EN"
 "http://www.w3.org/Graphics/SVG/1.1/DTD/svg11.dtd">
<!-- Generated by graphviz version 2.40.1 (20161225.0304)
 -->
<!-- Title: Kyuyo_details Pages: 1 -->
<svg width="756pt" height="922pt"
 viewBox="0.00 0.00 756.00 922.00" xmlns="http://www.w3.org/2000/svg" xmlns:xlink="http://www.w3.org/1999/xlink">
<g id="graph0" class="graph" transform="scale(1 1) rotate(0) translate(4 918)">
<title>Kyuyo_details</title>
<polygon fill="#ffffff" stroke="transparent" points="-4,4 -4,-918 752,-918 752,4 -4,4"/>
<!-- Kyuyo_details -->
<g id="node1" class="node">
<title>Kyuyo_details</title>
<polygon fill="#efefef" stroke="transparent" points="256,-832.5 256,-867.5 509,-867.5 509,-832.5 256,-832.5"/>
<polygon fill="none" stroke="#000000" points="256,-832.5 256,-867.5 509,-867.5 509,-832.5 256,-832.5"/>
<text text-anchor="start" x="262.7" y="-845.3" font-family="Arial Bold" font-size="18.00" fill="#000000">Kyuyo_details</text>
<text text-anchor="start" x="374.732" y="-845.3" font-family="Arial" font-size="14.00" fill="#000000">    </text>
<text text-anchor="start" x="408.9368" y="-845.3" font-family="Arial" font-size="14.00" fill="#666666">[BASE TABLE]</text>
<polygon fill="none" stroke="#000000" points="256,-802.5 256,-832.5 509,-832.5 509,-802.5 256,-802.5"/>
<text text-anchor="start" x="263" y="-813.9" font-family="Arial" font-size="14.00" fill="#000000">id </text>
<text text-anchor="start" x="277.7798" y="-813.9" font-family="Arial" font-size="14.00" fill="#666666">[int unsigned]</text>
<polygon fill="none" stroke="#000000" points="256,-772.5 256,-802.5 509,-802.5 509,-772.5 256,-772.5"/>
<text text-anchor="start" x="263" y="-783.9" font-family="Arial" font-size="14.00" fill="#000000">kihonkyu </text>
<text text-anchor="start" x="322.1276" y="-783.9" font-family="Arial" font-size="14.00" fill="#666666">[int]</text>
<polygon fill="none" stroke="#000000" points="256,-742.5 256,-772.5 509,-772.5 509,-742.5 256,-742.5"/>
<text text-anchor="start" x="263" y="-753.9" font-family="Arial" font-size="14.00" fill="#000000">yakusyokuTeate </text>
<text text-anchor="start" x="368.812" y="-753.9" font-family="Arial" font-size="14.00" fill="#666666">[int]</text>
<polygon fill="none" stroke="#000000" points="256,-712.5 256,-742.5 509,-742.5 509,-712.5 256,-712.5"/>
<text text-anchor="start" x="263" y="-723.9" font-family="Arial" font-size="14.00" fill="#000000">tukinTeate </text>
<text text-anchor="start" x="332.244" y="-723.9" font-family="Arial" font-size="14.00" fill="#666666">[int]</text>
<polygon fill="none" stroke="#000000" points="256,-682.5 256,-712.5 509,-712.5 509,-682.5 256,-682.5"/>
<text text-anchor="start" x="263" y="-693.9" font-family="Arial" font-size="14.00" fill="#000000">zangyoId </text>
<text text-anchor="start" x="323.6942" y="-693.9" font-family="Arial" font-size="14.00" fill="#666666">[int unsigned]</text>
<polygon fill="none" stroke="#000000" points="256,-652.5 256,-682.5 509,-682.5 509,-652.5 256,-652.5"/>
<text text-anchor="start" x="263" y="-663.9" font-family="Arial" font-size="14.00" fill="#000000">zyuminzei </text>
<text text-anchor="start" x="329.1122" y="-663.9" font-family="Arial" font-size="14.00" fill="#666666">[int]</text>
<polygon fill="none" stroke="#000000" points="256,-622.5 256,-652.5 509,-652.5 509,-622.5 256,-622.5"/>
<text text-anchor="start" x="263" y="-633.9" font-family="Arial" font-size="14.00" fill="#000000">syakaihoken </text>
<text text-anchor="start" x="344.6928" y="-633.9" font-family="Arial" font-size="14.00" fill="#666666">[int]</text>
<polygon fill="none" stroke="#000000" points="256,-592.5 256,-622.5 509,-622.5 509,-592.5 256,-592.5"/>
<text text-anchor="start" x="263" y="-603.9" font-family="Arial" font-size="14.00" fill="#000000">syotokuzei </text>
<text text-anchor="start" x="333.0182" y="-603.9" font-family="Arial" font-size="14.00" fill="#666666">[int]</text>
<polygon fill="none" stroke="#000000" points="256,-562.5 256,-592.5 509,-592.5 509,-562.5 256,-562.5"/>
<text text-anchor="start" x="263" y="-573.9" font-family="Arial" font-size="14.00" fill="#000000">syainId </text>
<text text-anchor="start" x="311.2356" y="-573.9" font-family="Arial" font-size="14.00" fill="#666666">[int unsigned]</text>
<polygon fill="none" stroke="#000000" points="256,-532.5 256,-562.5 509,-562.5 509,-532.5 256,-532.5"/>
<text text-anchor="start" x="263" y="-543.9" font-family="Arial" font-size="14.00" fill="#000000">siharaibi </text>
<text text-anchor="start" x="319.0014" y="-543.9" font-family="Arial" font-size="14.00" fill="#666666">[date]</text>
<polygon fill="none" stroke="#000000" points="256,-502.5 256,-532.5 509,-532.5 509,-502.5 256,-502.5"/>
<text text-anchor="start" x="263" y="-513.9" font-family="Arial" font-size="14.00" fill="#000000">createdAt </text>
<text text-anchor="start" x="326.7994" y="-513.9" font-family="Arial" font-size="14.00" fill="#666666">[date]</text>
<polygon fill="none" stroke="#000000" points="256,-472.5 256,-502.5 509,-502.5 509,-472.5 256,-472.5"/>
<text text-anchor="start" x="263" y="-483.9" font-family="Arial" font-size="14.00" fill="#000000">updatedAt </text>
<text text-anchor="start" x="330.704" y="-483.9" font-family="Arial" font-size="14.00" fill="#666666">[date]</text>
<polygon fill="none" stroke="#000000" points="256,-442.5 256,-472.5 509,-472.5 509,-442.5 256,-442.5"/>
<text text-anchor="start" x="263" y="-453.9" font-family="Arial" font-size="14.00" fill="#000000">deletedAt </text>
<text text-anchor="start" x="326.028" y="-453.9" font-family="Arial" font-size="14.00" fill="#666666">[date]</text>
<polygon fill="none" stroke="#000000" stroke-width="3" points="254,-441.5 254,-869.5 510,-869.5 510,-441.5 254,-441.5"/>
</g>
<!-- Zangyo -->
<g id="node2" class="node">
<title>Zangyo</title>
<polygon fill="#efefef" stroke="transparent" points="128,-252.5 128,-287.5 329,-287.5 329,-252.5 128,-252.5"/>
<polygon fill="none" stroke="#000000" points="128,-252.5 128,-287.5 329,-287.5 329,-252.5 128,-252.5"/>
<text text-anchor="start" x="134.7055" y="-265.3" font-family="Arial Bold" font-size="18.00" fill="#000000">Zangyo</text>
<text text-anchor="start" x="194.7265" y="-265.3" font-family="Arial" font-size="14.00" fill="#000000">    </text>
<text text-anchor="start" x="228.9313" y="-265.3" font-family="Arial" font-size="14.00" fill="#666666">[BASE TABLE]</text>
<polygon fill="none" stroke="#000000" points="128,-222.5 128,-252.5 329,-252.5 329,-222.5 128,-222.5"/>
<text text-anchor="start" x="135" y="-233.9" font-family="Arial" font-size="14.00" fill="#000000">id    </text>
<text text-anchor="start" x="180.094" y="-233.9" font-family="Arial" font-size="14.00" fill="#666666">[int unsigned]</text>
<polygon fill="none" stroke="#000000" points="128,-192.5 128,-222.5 329,-222.5 329,-192.5 128,-192.5"/>
<text text-anchor="start" x="135" y="-203.9" font-family="Arial" font-size="14.00" fill="#000000">tuzyo    </text>
<text text-anchor="start" x="202.6606" y="-203.9" font-family="Arial" font-size="14.00" fill="#666666">[int]</text>
<polygon fill="none" stroke="#000000" points="128,-162.5 128,-192.5 329,-192.5 329,-162.5 128,-162.5"/>
<text text-anchor="start" x="135" y="-173.9" font-family="Arial" font-size="14.00" fill="#000000">kyuzitu    </text>
<text text-anchor="start" x="212.7672" y="-173.9" font-family="Arial" font-size="14.00" fill="#666666">[int]</text>
<polygon fill="none" stroke="#000000" points="128,-132.5 128,-162.5 329,-162.5 329,-132.5 128,-132.5"/>
<text text-anchor="start" x="135" y="-143.9" font-family="Arial" font-size="14.00" fill="#000000">sinya    </text>
<text text-anchor="start" x="201.8766" y="-143.9" font-family="Arial" font-size="14.00" fill="#666666">[int]</text>
<polygon fill="none" stroke="#000000" points="128,-102.5 128,-132.5 329,-132.5 329,-102.5 128,-102.5"/>
<text text-anchor="start" x="135" y="-113.9" font-family="Arial" font-size="14.00" fill="#000000">syainId    </text>
<text text-anchor="start" x="213.5498" y="-113.9" font-family="Arial" font-size="14.00" fill="#666666">[int unsigned]</text>
<polygon fill="none" stroke="#000000" points="128,-72.5 128,-102.5 329,-102.5 329,-72.5 128,-72.5"/>
<text text-anchor="start" x="135" y="-83.9" font-family="Arial" font-size="14.00" fill="#000000">nengetu    </text>
<text text-anchor="start" x="219.791" y="-83.9" font-family="Arial" font-size="14.00" fill="#666666">[date]</text>
</g>
<!-- Kyuyo_details&#45;&gt;Zangyo -->
<g id="edge1" class="edge">
<title>Kyuyo_details:zangyoId&#45;&gt;Zangyo:id</title>
<path fill="none" stroke="#000000" d="M245.8753,-697.1321C126.6119,-688.1295 203.2317,-515.846 256,-397 273.7494,-357.0244 311.2506,-370.9756 329,-331 345.8634,-293.0199 370.5556,-237.5 329,-237.5"/>
<polygon fill="#000000" stroke="#000000" points="246.0066,-697.1368 255.8366,-701.997 251.0033,-697.3184 256,-697.5 256,-697.5 256,-697.5 251.0033,-697.3184 256.1634,-693.003 246.0066,-697.1368 246.0066,-697.1368"/>
<text text-anchor="start" x="6.601" y="-707.5" font-family="Arial" font-size="10.00" fill="#000000">FOREIGN KEY (zangyoId) REFERENCES Zangyo (id)</text>
</g>
<!-- Syain -->
<g id="node3" class="node">
<title>Syain</title>
<polygon fill="#efefef" stroke="transparent" points="433,-282.5 433,-317.5 642,-317.5 642,-282.5 433,-282.5"/>
<polygon fill="none" stroke="#000000" points="433,-282.5 433,-317.5 642,-317.5 642,-282.5 433,-282.5"/>
<text text-anchor="start" x="451.2106" y="-295.3" font-family="Arial Bold" font-size="18.00" fill="#000000">Syain</text>
<text text-anchor="start" x="496.2214" y="-295.3" font-family="Arial" font-size="14.00" fill="#000000">    </text>
<text text-anchor="start" x="530.4262" y="-295.3" font-family="Arial" font-size="14.00" fill="#666666">[BASE TABLE]</text>
<polygon fill="none" stroke="#000000" points="433,-252.5 433,-282.5 642,-282.5 642,-252.5 433,-252.5"/>
<text text-anchor="start" x="440" y="-263.9" font-family="Arial" font-size="14.00" fill="#000000">id    </text>
<text text-anchor="start" x="485.094" y="-263.9" font-family="Arial" font-size="14.00" fill="#666666">[int unsigned]</text>
<polygon fill="none" stroke="#000000" points="433,-222.5 433,-252.5 642,-252.5 642,-222.5 433,-222.5"/>
<text text-anchor="start" x="440" y="-233.9" font-family="Arial" font-size="14.00" fill="#000000">name    </text>
<text text-anchor="start" x="509.2132" y="-233.9" font-family="Arial" font-size="14.00" fill="#666666">[varchar(50)]</text>
<polygon fill="none" stroke="#000000" points="433,-192.5 433,-222.5 642,-222.5 642,-192.5 433,-192.5"/>
<text text-anchor="start" x="440" y="-203.9" font-family="Arial" font-size="14.00" fill="#000000">bumonId    </text>
<text text-anchor="start" x="528.669" y="-203.9" font-family="Arial" font-size="14.00" fill="#666666">[int unsigned]</text>
<polygon fill="none" stroke="#000000" points="433,-162.5 433,-192.5 642,-192.5 642,-162.5 433,-162.5"/>
<text text-anchor="start" x="439.8689" y="-173.9" font-family="Arial" font-size="14.00" fill="#000000">yakusyokuId    </text>
<text text-anchor="start" x="551.8773" y="-173.9" font-family="Arial" font-size="14.00" fill="#666666">[int unsigned]</text>
<polygon fill="none" stroke="#000000" points="433,-132.5 433,-162.5 642,-162.5 642,-132.5 433,-132.5"/>
<text text-anchor="start" x="440" y="-143.9" font-family="Arial" font-size="14.00" fill="#000000">kihonkyu    </text>
<text text-anchor="start" x="529.4418" y="-143.9" font-family="Arial" font-size="14.00" fill="#666666">[int]</text>
<polygon fill="none" stroke="#000000" points="433,-102.5 433,-132.5 642,-132.5 642,-102.5 433,-102.5"/>
<text text-anchor="start" x="440" y="-113.9" font-family="Arial" font-size="14.00" fill="#000000">nyusyabi    </text>
<text text-anchor="start" x="529.4418" y="-113.9" font-family="Arial" font-size="14.00" fill="#666666">[date]</text>
<polygon fill="none" stroke="#000000" points="433,-72.5 433,-102.5 642,-102.5 642,-72.5 433,-72.5"/>
<text text-anchor="start" x="440" y="-83.9" font-family="Arial" font-size="14.00" fill="#000000">taisyabi    </text>
<text text-anchor="start" x="521.6564" y="-83.9" font-family="Arial" font-size="14.00" fill="#666666">[date]</text>
<polygon fill="none" stroke="#000000" points="433,-42.5 433,-72.5 642,-72.5 642,-42.5 433,-42.5"/>
<text text-anchor="start" x="440" y="-53.9" font-family="Arial" font-size="14.00" fill="#000000">updatedAt    </text>
<text text-anchor="start" x="538.0182" y="-53.9" font-family="Arial" font-size="14.00" fill="#666666">[date]</text>
</g>
<!-- Kyuyo_details&#45;&gt;Syain -->
<g id="edge2" class="edge">
<title>Kyuyo_details:syainId&#45;&gt;Syain:id</title>
<path fill="none" stroke="#000000" d="M519.1097,-576.8319C585.8577,-567.4642 549.9717,-461.7434 509,-397 489.0134,-365.4172 452.9866,-392.5828 433,-361 410.7782,-325.8851 391.4444,-267.5 433,-267.5"/>
<polygon fill="#000000" stroke="#000000" points="518.9782,-576.8405 508.7032,-573.0098 513.9891,-577.1703 509,-577.5 509,-577.5 509,-577.5 513.9891,-577.1703 509.2968,-581.9902 518.9782,-576.8405 518.9782,-576.8405"/>
<text text-anchor="start" x="516.22" y="-587.5" font-family="Arial" font-size="10.00" fill="#000000">FOREIGN KEY (syainId) REFERENCES Syain (id)</text>
</g>
</g>
</svg>
