<?xml version="1.0" encoding="UTF-8" standalone="no"?>
<!DOCTYPE svg PUBLIC "-//W3C//DTD SVG 1.1//EN"
 "http://www.w3.org/Graphics/SVG/1.1/DTD/svg11.dtd">
<!-- Generated by graphviz version 2.40.1 (20161225.0304)
 -->
<!-- Title: kyuyoCulculateService Pages: 1 -->
<svg width="765pt" height="1500pt"
 viewBox="0.00 0.00 765.00 1500.00" xmlns="http://www.w3.org/2000/svg" xmlns:xlink="http://www.w3.org/1999/xlink">
<g id="graph0" class="graph" transform="scale(1 1) rotate(0) translate(4 1496)">
<title>kyuyoCulculateService</title>
<polygon fill="#ffffff" stroke="transparent" points="-4,4 -4,-1496 761,-1496 761,4 -4,4"/>
<!-- Bumon -->
<g id="node1" class="node">
<title>Bumon</title>
<polygon fill="#efefef" stroke="transparent" points="108,-117.5 108,-152.5 306,-152.5 306,-117.5 108,-117.5"/>
<polygon fill="none" stroke="#000000" points="108,-117.5 108,-152.5 306,-152.5 306,-117.5 108,-117.5"/>
<text text-anchor="start" x="114.7085" y="-130.3" font-family="Arial Bold" font-size="18.00" fill="#000000">Bumon</text>
<text text-anchor="start" x="171.7235" y="-130.3" font-family="Arial" font-size="14.00" fill="#000000">    </text>
<text text-anchor="start" x="205.9283" y="-130.3" font-family="Arial" font-size="14.00" fill="#666666">[BASE TABLE]</text>
<polygon fill="none" stroke="#000000" points="108,-87.5 108,-117.5 306,-117.5 306,-87.5 108,-87.5"/>
<text text-anchor="start" x="115" y="-98.9" font-family="Arial" font-size="14.00" fill="#000000">id    </text>
<text text-anchor="start" x="160.094" y="-98.9" font-family="Arial" font-size="14.00" fill="#666666">[int unsigned]</text>
<polygon fill="none" stroke="#000000" points="108,-57.5 108,-87.5 306,-87.5 306,-57.5 108,-57.5"/>
<text text-anchor="start" x="115" y="-68.9" font-family="Arial" font-size="14.00" fill="#000000">name    </text>
<text text-anchor="start" x="184.2132" y="-68.9" font-family="Arial" font-size="14.00" fill="#666666">[varchar(50)]</text>
</g>
<!-- Kyuyo_details -->
<g id="node2" class="node">
<title>Kyuyo_details</title>
<polygon fill="#efefef" stroke="transparent" points="239,-1413.5 239,-1448.5 492,-1448.5 492,-1413.5 239,-1413.5"/>
<polygon fill="none" stroke="#000000" points="239,-1413.5 239,-1448.5 492,-1448.5 492,-1413.5 239,-1413.5"/>
<text text-anchor="start" x="245.7" y="-1426.3" font-family="Arial Bold" font-size="18.00" fill="#000000">Kyuyo_details</text>
<text text-anchor="start" x="357.732" y="-1426.3" font-family="Arial" font-size="14.00" fill="#000000">    </text>
<text text-anchor="start" x="391.9368" y="-1426.3" font-family="Arial" font-size="14.00" fill="#666666">[BASE TABLE]</text>
<polygon fill="none" stroke="#000000" points="239,-1383.5 239,-1413.5 492,-1413.5 492,-1383.5 239,-1383.5"/>
<text text-anchor="start" x="246" y="-1394.9" font-family="Arial" font-size="14.00" fill="#000000">id    </text>
<text text-anchor="start" x="291.094" y="-1394.9" font-family="Arial" font-size="14.00" fill="#666666">[int unsigned]</text>
<polygon fill="none" stroke="#000000" points="239,-1353.5 239,-1383.5 492,-1383.5 492,-1353.5 239,-1353.5"/>
<text text-anchor="start" x="246" y="-1364.9" font-family="Arial" font-size="14.00" fill="#000000">kihonkyu    </text>
<text text-anchor="start" x="335.4418" y="-1364.9" font-family="Arial" font-size="14.00" fill="#666666">[int]</text>
<polygon fill="none" stroke="#000000" points="239,-1323.5 239,-1353.5 492,-1353.5 492,-1323.5 239,-1323.5"/>
<text text-anchor="start" x="246" y="-1334.9" font-family="Arial" font-size="14.00" fill="#000000">yakusyokuTeate    </text>
<text text-anchor="start" x="382.1262" y="-1334.9" font-family="Arial" font-size="14.00" fill="#666666">[int]</text>
<polygon fill="none" stroke="#000000" points="239,-1293.5 239,-1323.5 492,-1323.5 492,-1293.5 239,-1293.5"/>
<text text-anchor="start" x="246" y="-1304.9" font-family="Arial" font-size="14.00" fill="#000000">tukinTeate    </text>
<text text-anchor="start" x="345.5582" y="-1304.9" font-family="Arial" font-size="14.00" fill="#666666">[int]</text>
<polygon fill="none" stroke="#000000" points="239,-1263.5 239,-1293.5 492,-1293.5 492,-1263.5 239,-1263.5"/>
<text text-anchor="start" x="246" y="-1274.9" font-family="Arial" font-size="14.00" fill="#000000">zangyoId    </text>
<text text-anchor="start" x="337.0084" y="-1274.9" font-family="Arial" font-size="14.00" fill="#666666">[int unsigned]</text>
<polygon fill="none" stroke="#000000" points="239,-1233.5 239,-1263.5 492,-1263.5 492,-1233.5 239,-1233.5"/>
<text text-anchor="start" x="246" y="-1244.9" font-family="Arial" font-size="14.00" fill="#000000">zyuminzei    </text>
<text text-anchor="start" x="342.4264" y="-1244.9" font-family="Arial" font-size="14.00" fill="#666666">[int]</text>
<polygon fill="none" stroke="#000000" points="239,-1203.5 239,-1233.5 492,-1233.5 492,-1203.5 239,-1203.5"/>
<text text-anchor="start" x="246" y="-1214.9" font-family="Arial" font-size="14.00" fill="#000000">syakaihoken    </text>
<text text-anchor="start" x="358.007" y="-1214.9" font-family="Arial" font-size="14.00" fill="#666666">[int]</text>
<polygon fill="none" stroke="#000000" points="239,-1173.5 239,-1203.5 492,-1203.5 492,-1173.5 239,-1173.5"/>
<text text-anchor="start" x="246" y="-1184.9" font-family="Arial" font-size="14.00" fill="#000000">syotokuzei    </text>
<text text-anchor="start" x="346.3324" y="-1184.9" font-family="Arial" font-size="14.00" fill="#666666">[int]</text>
<polygon fill="none" stroke="#000000" points="239,-1143.5 239,-1173.5 492,-1173.5 492,-1143.5 239,-1143.5"/>
<text text-anchor="start" x="246" y="-1154.9" font-family="Arial" font-size="14.00" fill="#000000">syainId    </text>
<text text-anchor="start" x="324.5498" y="-1154.9" font-family="Arial" font-size="14.00" fill="#666666">[int unsigned]</text>
<polygon fill="none" stroke="#000000" points="239,-1113.5 239,-1143.5 492,-1143.5 492,-1113.5 239,-1113.5"/>
<text text-anchor="start" x="246" y="-1124.9" font-family="Arial" font-size="14.00" fill="#000000">siharaibi    </text>
<text text-anchor="start" x="332.3156" y="-1124.9" font-family="Arial" font-size="14.00" fill="#666666">[date]</text>
<polygon fill="none" stroke="#000000" points="239,-1083.5 239,-1113.5 492,-1113.5 492,-1083.5 239,-1083.5"/>
<text text-anchor="start" x="246" y="-1094.9" font-family="Arial" font-size="14.00" fill="#000000">createdAt    </text>
<text text-anchor="start" x="340.1136" y="-1094.9" font-family="Arial" font-size="14.00" fill="#666666">[date]</text>
<polygon fill="none" stroke="#000000" points="239,-1053.5 239,-1083.5 492,-1083.5 492,-1053.5 239,-1053.5"/>
<text text-anchor="start" x="246" y="-1064.9" font-family="Arial" font-size="14.00" fill="#000000">updatedAt    </text>
<text text-anchor="start" x="344.0182" y="-1064.9" font-family="Arial" font-size="14.00" fill="#666666">[date]</text>
<polygon fill="none" stroke="#000000" points="239,-1023.5 239,-1053.5 492,-1053.5 492,-1023.5 239,-1023.5"/>
<text text-anchor="start" x="246" y="-1034.9" font-family="Arial" font-size="14.00" fill="#000000">deletedAt    </text>
<text text-anchor="start" x="339.3422" y="-1034.9" font-family="Arial" font-size="14.00" fill="#666666">[date]</text>
</g>
<!-- Syain -->
<g id="node3" class="node">
<title>Syain</title>
<polygon fill="#efefef" stroke="transparent" points="261,-529.5 261,-564.5 470,-564.5 470,-529.5 261,-529.5"/>
<polygon fill="none" stroke="#000000" points="261,-529.5 261,-564.5 470,-564.5 470,-529.5 261,-529.5"/>
<text text-anchor="start" x="279.2106" y="-542.3" font-family="Arial Bold" font-size="18.00" fill="#000000">Syain</text>
<text text-anchor="start" x="324.2214" y="-542.3" font-family="Arial" font-size="14.00" fill="#000000">    </text>
<text text-anchor="start" x="358.4262" y="-542.3" font-family="Arial" font-size="14.00" fill="#666666">[BASE TABLE]</text>
<polygon fill="none" stroke="#000000" points="261,-499.5 261,-529.5 470,-529.5 470,-499.5 261,-499.5"/>
<text text-anchor="start" x="268" y="-510.9" font-family="Arial" font-size="14.00" fill="#000000">id    </text>
<text text-anchor="start" x="313.094" y="-510.9" font-family="Arial" font-size="14.00" fill="#666666">[int unsigned]</text>
<polygon fill="none" stroke="#000000" points="261,-469.5 261,-499.5 470,-499.5 470,-469.5 261,-469.5"/>
<text text-anchor="start" x="268" y="-480.9" font-family="Arial" font-size="14.00" fill="#000000">name    </text>
<text text-anchor="start" x="337.2132" y="-480.9" font-family="Arial" font-size="14.00" fill="#666666">[varchar(50)]</text>
<polygon fill="none" stroke="#000000" points="261,-439.5 261,-469.5 470,-469.5 470,-439.5 261,-439.5"/>
<text text-anchor="start" x="268" y="-450.9" font-family="Arial" font-size="14.00" fill="#000000">bumonId    </text>
<text text-anchor="start" x="356.669" y="-450.9" font-family="Arial" font-size="14.00" fill="#666666">[int unsigned]</text>
<polygon fill="none" stroke="#000000" points="261,-409.5 261,-439.5 470,-439.5 470,-409.5 261,-409.5"/>
<text text-anchor="start" x="267.8689" y="-420.9" font-family="Arial" font-size="14.00" fill="#000000">yakusyokuId    </text>
<text text-anchor="start" x="379.8773" y="-420.9" font-family="Arial" font-size="14.00" fill="#666666">[int unsigned]</text>
<polygon fill="none" stroke="#000000" points="261,-379.5 261,-409.5 470,-409.5 470,-379.5 261,-379.5"/>
<text text-anchor="start" x="268" y="-390.9" font-family="Arial" font-size="14.00" fill="#000000">kihonkyu    </text>
<text text-anchor="start" x="357.4418" y="-390.9" font-family="Arial" font-size="14.00" fill="#666666">[int]</text>
<polygon fill="none" stroke="#000000" points="261,-349.5 261,-379.5 470,-379.5 470,-349.5 261,-349.5"/>
<text text-anchor="start" x="268" y="-360.9" font-family="Arial" font-size="14.00" fill="#000000">nyusyabi    </text>
<text text-anchor="start" x="357.4418" y="-360.9" font-family="Arial" font-size="14.00" fill="#666666">[date]</text>
<polygon fill="none" stroke="#000000" points="261,-319.5 261,-349.5 470,-349.5 470,-319.5 261,-319.5"/>
<text text-anchor="start" x="268" y="-330.9" font-family="Arial" font-size="14.00" fill="#000000">taisyabi    </text>
<text text-anchor="start" x="349.6564" y="-330.9" font-family="Arial" font-size="14.00" fill="#666666">[date]</text>
<polygon fill="none" stroke="#000000" points="261,-289.5 261,-319.5 470,-319.5 470,-289.5 261,-289.5"/>
<text text-anchor="start" x="268" y="-300.9" font-family="Arial" font-size="14.00" fill="#000000">updatedAt    </text>
<text text-anchor="start" x="366.0182" y="-300.9" font-family="Arial" font-size="14.00" fill="#666666">[date]</text>
</g>
<!-- Kyuyo_details&#45;&gt;Syain -->
<g id="edge2" class="edge">
<title>Kyuyo_details:syainId&#45;&gt;Syain:id</title>
<path fill="none" stroke="#000000" d="M228.8069,-1157.3672C96.9519,-1127.4385 121.3014,-514.5 261,-514.5"/>
<polygon fill="#000000" stroke="#000000" points="229.0612,-1157.3954 238.5029,-1162.9725 234.0306,-1157.9477 239,-1158.5 239,-1158.5 239,-1158.5 234.0306,-1157.9477 239.4971,-1154.0275 229.0612,-1157.3954 229.0612,-1157.3954"/>
<text text-anchor="start" x="7.22" y="-1168.5" font-family="Arial" font-size="10.00" fill="#000000">FOREIGN KEY (syainId) REFERENCES Syain (id)</text>
</g>
<!-- Zangyo -->
<g id="node5" class="node">
<title>Zangyo</title>
<polygon fill="#efefef" stroke="transparent" points="352,-866.5 352,-901.5 553,-901.5 553,-866.5 352,-866.5"/>
<polygon fill="none" stroke="#000000" points="352,-866.5 352,-901.5 553,-901.5 553,-866.5 352,-866.5"/>
<text text-anchor="start" x="358.7055" y="-879.3" font-family="Arial Bold" font-size="18.00" fill="#000000">Zangyo</text>
<text text-anchor="start" x="418.7265" y="-879.3" font-family="Arial" font-size="14.00" fill="#000000">    </text>
<text text-anchor="start" x="452.9313" y="-879.3" font-family="Arial" font-size="14.00" fill="#666666">[BASE TABLE]</text>
<polygon fill="none" stroke="#000000" points="352,-836.5 352,-866.5 553,-866.5 553,-836.5 352,-836.5"/>
<text text-anchor="start" x="359" y="-847.9" font-family="Arial" font-size="14.00" fill="#000000">id    </text>
<text text-anchor="start" x="404.094" y="-847.9" font-family="Arial" font-size="14.00" fill="#666666">[int unsigned]</text>
<polygon fill="none" stroke="#000000" points="352,-806.5 352,-836.5 553,-836.5 553,-806.5 352,-806.5"/>
<text text-anchor="start" x="359" y="-817.9" font-family="Arial" font-size="14.00" fill="#000000">tuzyo    </text>
<text text-anchor="start" x="426.6606" y="-817.9" font-family="Arial" font-size="14.00" fill="#666666">[int]</text>
<polygon fill="none" stroke="#000000" points="352,-776.5 352,-806.5 553,-806.5 553,-776.5 352,-776.5"/>
<text text-anchor="start" x="359" y="-787.9" font-family="Arial" font-size="14.00" fill="#000000">kyuzitu    </text>
<text text-anchor="start" x="436.7672" y="-787.9" font-family="Arial" font-size="14.00" fill="#666666">[int]</text>
<polygon fill="none" stroke="#000000" points="352,-746.5 352,-776.5 553,-776.5 553,-746.5 352,-746.5"/>
<text text-anchor="start" x="359" y="-757.9" font-family="Arial" font-size="14.00" fill="#000000">sinya    </text>
<text text-anchor="start" x="425.8766" y="-757.9" font-family="Arial" font-size="14.00" fill="#666666">[int]</text>
<polygon fill="none" stroke="#000000" points="352,-716.5 352,-746.5 553,-746.5 553,-716.5 352,-716.5"/>
<text text-anchor="start" x="359" y="-727.9" font-family="Arial" font-size="14.00" fill="#000000">syainId    </text>
<text text-anchor="start" x="437.5498" y="-727.9" font-family="Arial" font-size="14.00" fill="#666666">[int unsigned]</text>
<polygon fill="none" stroke="#000000" points="352,-686.5 352,-716.5 553,-716.5 553,-686.5 352,-686.5"/>
<text text-anchor="start" x="359" y="-697.9" font-family="Arial" font-size="14.00" fill="#000000">nengetu    </text>
<text text-anchor="start" x="443.791" y="-697.9" font-family="Arial" font-size="14.00" fill="#666666">[date]</text>
</g>
<!-- Kyuyo_details&#45;&gt;Zangyo -->
<g id="edge1" class="edge">
<title>Kyuyo_details:zangyoId&#45;&gt;Zangyo:id</title>
<path fill="none" stroke="#000000" d="M502.0792,-1278.1026C621.5014,-1268.3833 570.8847,-1082.7356 492,-981 452.6321,-930.2282 391.3679,-995.7718 352,-945 326.5363,-912.1601 310.4444,-851.5 352,-851.5"/>
<polygon fill="#000000" stroke="#000000" points="501.9922,-1278.1059 491.8227,-1274.0035 496.9961,-1278.303 492,-1278.5 492,-1278.5 492,-1278.5 496.9961,-1278.303 492.1773,-1282.9965 501.9922,-1278.1059 501.9922,-1278.1059"/>
<text text-anchor="start" x="498.601" y="-1288.5" font-family="Arial" font-size="10.00" fill="#000000">FOREIGN KEY (zangyoId) REFERENCES Zangyo (id)</text>
</g>
<!-- Syain&#45;&gt;Bumon -->
<g id="edge3" class="edge">
<title>Syain:bumonId&#45;&gt;Bumon:id</title>
<path fill="none" stroke="#000000" d="M250.8771,-453.9543C173.3933,-445.0816 229.658,-329.8924 261,-247 271.6909,-218.7249 295.3091,-224.2751 306,-196 320.6969,-157.1301 347.5556,-102.5 306,-102.5"/>
<polygon fill="#000000" stroke="#000000" points="251.0145,-453.9616 260.7577,-458.9935 256.0072,-454.2308 261,-454.5 261,-454.5 261,-454.5 256.0072,-454.2308 261.2423,-450.0065 251.0145,-453.9616 251.0145,-453.9616"/>
<text text-anchor="start" x="15.2715" y="-464.5" font-family="Arial" font-size="10.00" fill="#000000">FOREIGN KEY (bumonId) REFERENCES Bumon (id)</text>
</g>
<!-- Yakusyoku -->
<g id="node4" class="node">
<title>Yakusyoku</title>
<polygon fill="#efefef" stroke="transparent" points="411,-132.5 411,-167.5 640,-167.5 640,-132.5 411,-132.5"/>
<polygon fill="none" stroke="#000000" points="411,-132.5 411,-167.5 640,-167.5 640,-132.5 411,-132.5"/>
<text text-anchor="start" x="417.7015" y="-145.3" font-family="Arial Bold" font-size="18.00" fill="#000000">Yakusyoku</text>
<text text-anchor="start" x="505.7305" y="-145.3" font-family="Arial" font-size="14.00" fill="#000000">    </text>
<text text-anchor="start" x="539.9353" y="-145.3" font-family="Arial" font-size="14.00" fill="#666666">[BASE TABLE]</text>
<polygon fill="none" stroke="#000000" points="411,-102.5 411,-132.5 640,-132.5 640,-102.5 411,-102.5"/>
<text text-anchor="start" x="418" y="-113.9" font-family="Arial" font-size="14.00" fill="#000000">id    </text>
<text text-anchor="start" x="463.094" y="-113.9" font-family="Arial" font-size="14.00" fill="#666666">[int unsigned]</text>
<polygon fill="none" stroke="#000000" points="411,-72.5 411,-102.5 640,-102.5 640,-72.5 411,-72.5"/>
<text text-anchor="start" x="418" y="-83.9" font-family="Arial" font-size="14.00" fill="#000000">name    </text>
<text text-anchor="start" x="487.2132" y="-83.9" font-family="Arial" font-size="14.00" fill="#666666">[varchar(50)]</text>
<polygon fill="none" stroke="#000000" points="411,-42.5 411,-72.5 640,-72.5 640,-42.5 411,-42.5"/>
<text text-anchor="start" x="418" y="-53.9" font-family="Arial" font-size="14.00" fill="#000000">teate    </text>
<text text-anchor="start" x="483.3338" y="-53.9" font-family="Arial" font-size="14.00" fill="#666666">[int]</text>
</g>
<!-- Syain&#45;&gt;Yakusyoku -->
<g id="edge4" class="edge">
<title>Syain:yakusyokuId&#45;&gt;Yakusyoku:id</title>
<path fill="none" stroke="#000000" d="M480.2634,-424.4543C858.8055,-421.0254 419.3593,-225.8932 411,-211 390.6604,-174.7624 369.4444,-117.5 411,-117.5"/>
<polygon fill="#000000" stroke="#000000" points="479.9999,-424.4553 469.9799,-420 475,-424.4777 470,-424.5 470,-424.5 470,-424.5 475,-424.4777 470.0201,-429 479.9999,-424.4553 479.9999,-424.4553"/>
<text text-anchor="start" x="477.321" y="-434.5" font-family="Arial" font-size="10.00" fill="#000000">FOREIGN KEY (yakusyokuId) REFERENCES Yakusyoku (id)</text>
</g>
<!-- Zangyo&#45;&gt;Syain -->
<g id="edge5" class="edge">
<title>Zangyo:syainId&#45;&gt;Syain:id</title>
<path fill="none" stroke="#000000" d="M341.7923,-729.8446C316.3861,-720.3329 331.2091,-672.08 352,-644 384.6276,-599.9335 437.3724,-652.0665 470,-608 494.7281,-574.6026 511.5556,-514.5 470,-514.5"/>
<polygon fill="#000000" stroke="#000000" points="342.129,-729.8991 351.2796,-735.942 347.0645,-730.6996 352,-731.5 352,-731.5 352,-731.5 347.0645,-730.6996 352.7204,-727.058 342.129,-729.8991 342.129,-729.8991"/>
<text text-anchor="start" x="120.22" y="-741.5" font-family="Arial" font-size="10.00" fill="#000000">FOREIGN KEY (syainId) REFERENCES Syain (id)</text>
</g>
</g>
</svg>
