<?xml version="1.0" encoding="UTF-8" standalone="no"?>
<!DOCTYPE svg PUBLIC "-//W3C//DTD SVG 1.1//EN"
 "http://www.w3.org/Graphics/SVG/1.1/DTD/svg11.dtd">
<!-- Generated by graphviz version 2.40.1 (20161225.0304)
 -->
<!-- Title: Syain Pages: 1 -->
<svg width="734pt" height="1169pt"
 viewBox="0.00 0.00 734.00 1169.00" xmlns="http://www.w3.org/2000/svg" xmlns:xlink="http://www.w3.org/1999/xlink">
<g id="graph0" class="graph" transform="scale(1 1) rotate(0) translate(4 1165)">
<title>Syain</title>
<polygon fill="#ffffff" stroke="transparent" points="-4,4 -4,-1165 730,-1165 730,4 -4,4"/>
<!-- Syain -->
<g id="node1" class="node">
<title>Syain</title>
<polygon fill="#efefef" stroke="transparent" points="253,-532.5 253,-567.5 439,-567.5 439,-532.5 253,-532.5"/>
<polygon fill="none" stroke="#000000" points="253,-532.5 253,-567.5 439,-567.5 439,-532.5 253,-532.5"/>
<text text-anchor="start" x="259.7106" y="-545.3" font-family="Arial Bold" font-size="18.00" fill="#000000">Syain</text>
<text text-anchor="start" x="304.7214" y="-545.3" font-family="Arial" font-size="14.00" fill="#000000">    </text>
<text text-anchor="start" x="338.9262" y="-545.3" font-family="Arial" font-size="14.00" fill="#666666">[BASE TABLE]</text>
<polygon fill="none" stroke="#000000" points="253,-502.5 253,-532.5 439,-532.5 439,-502.5 253,-502.5"/>
<text text-anchor="start" x="260" y="-513.9" font-family="Arial" font-size="14.00" fill="#000000">id </text>
<text text-anchor="start" x="274.7798" y="-513.9" font-family="Arial" font-size="14.00" fill="#666666">[int unsigned]</text>
<polygon fill="none" stroke="#000000" points="253,-472.5 253,-502.5 439,-502.5 439,-472.5 253,-472.5"/>
<text text-anchor="start" x="260" y="-483.9" font-family="Arial" font-size="14.00" fill="#000000">name </text>
<text text-anchor="start" x="298.899" y="-483.9" font-family="Arial" font-size="14.00" fill="#666666">[varchar(50)]</text>
<polygon fill="none" stroke="#000000" points="253,-442.5 253,-472.5 439,-472.5 439,-442.5 253,-442.5"/>
<text text-anchor="start" x="260" y="-453.9" font-family="Arial" font-size="14.00" fill="#000000">bumonId </text>
<text text-anchor="start" x="318.3548" y="-453.9" font-family="Arial" font-size="14.00" fill="#666666">[int unsigned]</text>
<polygon fill="none" stroke="#000000" points="253,-412.5 253,-442.5 439,-442.5 439,-412.5 253,-412.5"/>
<text text-anchor="start" x="260" y="-423.9" font-family="Arial" font-size="14.00" fill="#000000">yakusyokuId </text>
<text text-anchor="start" x="341.6942" y="-423.9" font-family="Arial" font-size="14.00" fill="#666666">[int unsigned]</text>
<polygon fill="none" stroke="#000000" points="253,-382.5 253,-412.5 439,-412.5 439,-382.5 253,-382.5"/>
<text text-anchor="start" x="260" y="-393.9" font-family="Arial" font-size="14.00" fill="#000000">kihonkyu </text>
<text text-anchor="start" x="319.1276" y="-393.9" font-family="Arial" font-size="14.00" fill="#666666">[int]</text>
<polygon fill="none" stroke="#000000" points="253,-352.5 253,-382.5 439,-382.5 439,-352.5 253,-352.5"/>
<text text-anchor="start" x="260" y="-363.9" font-family="Arial" font-size="14.00" fill="#000000">nyusyabi </text>
<text text-anchor="start" x="319.1276" y="-363.9" font-family="Arial" font-size="14.00" fill="#666666">[date]</text>
<polygon fill="none" stroke="#000000" points="253,-322.5 253,-352.5 439,-352.5 439,-322.5 253,-322.5"/>
<text text-anchor="start" x="260" y="-333.9" font-family="Arial" font-size="14.00" fill="#000000">taisyabi </text>
<text text-anchor="start" x="311.3422" y="-333.9" font-family="Arial" font-size="14.00" fill="#666666">[date]</text>
<polygon fill="none" stroke="#000000" points="253,-292.5 253,-322.5 439,-322.5 439,-292.5 253,-292.5"/>
<text text-anchor="start" x="260" y="-303.9" font-family="Arial" font-size="14.00" fill="#000000">updatedAt </text>
<text text-anchor="start" x="327.704" y="-303.9" font-family="Arial" font-size="14.00" fill="#666666">[date]</text>
<polygon fill="none" stroke="#000000" stroke-width="3" points="251.5,-291.5 251.5,-569.5 440.5,-569.5 440.5,-291.5 251.5,-291.5"/>
</g>
<!-- Bumon -->
<g id="node4" class="node">
<title>Bumon</title>
<polygon fill="#efefef" stroke="transparent" points="88,-117.5 88,-152.5 286,-152.5 286,-117.5 88,-117.5"/>
<polygon fill="none" stroke="#000000" points="88,-117.5 88,-152.5 286,-152.5 286,-117.5 88,-117.5"/>
<text text-anchor="start" x="94.7085" y="-130.3" font-family="Arial Bold" font-size="18.00" fill="#000000">Bumon</text>
<text text-anchor="start" x="151.7235" y="-130.3" font-family="Arial" font-size="14.00" fill="#000000">    </text>
<text text-anchor="start" x="185.9283" y="-130.3" font-family="Arial" font-size="14.00" fill="#666666">[BASE TABLE]</text>
<polygon fill="none" stroke="#000000" points="88,-87.5 88,-117.5 286,-117.5 286,-87.5 88,-87.5"/>
<text text-anchor="start" x="95" y="-98.9" font-family="Arial" font-size="14.00" fill="#000000">id    </text>
<text text-anchor="start" x="140.094" y="-98.9" font-family="Arial" font-size="14.00" fill="#666666">[int unsigned]</text>
<polygon fill="none" stroke="#000000" points="88,-57.5 88,-87.5 286,-87.5 286,-57.5 88,-57.5"/>
<text text-anchor="start" x="95" y="-68.9" font-family="Arial" font-size="14.00" fill="#000000">name    </text>
<text text-anchor="start" x="164.2132" y="-68.9" font-family="Arial" font-size="14.00" fill="#666666">[varchar(50)]</text>
</g>
<!-- Syain&#45;&gt;Bumon -->
<g id="edge3" class="edge">
<title>Syain:bumonId&#45;&gt;Bumon:id</title>
<path fill="none" stroke="#000000" d="M242.7597,-456.9562C164.6215,-448.1118 227.538,-333.22 253,-247 260.6464,-221.1075 278.3536,-221.8925 286,-196 297.7695,-156.146 327.5556,-102.5 286,-102.5"/>
<polygon fill="#000000" stroke="#000000" points="243.0141,-456.9696 252.7613,-461.9937 248.007,-457.2348 253,-457.5 253,-457.5 253,-457.5 248.007,-457.2348 253.2387,-453.0063 243.0141,-456.9696 243.0141,-456.9696"/>
<text text-anchor="start" x="7.2715" y="-467.5" font-family="Arial" font-size="10.00" fill="#000000">FOREIGN KEY (bumonId) REFERENCES Bumon (id)</text>
</g>
<!-- Yakusyoku -->
<g id="node5" class="node">
<title>Yakusyoku</title>
<polygon fill="#efefef" stroke="transparent" points="391,-132.5 391,-167.5 620,-167.5 620,-132.5 391,-132.5"/>
<polygon fill="none" stroke="#000000" points="391,-132.5 391,-167.5 620,-167.5 620,-132.5 391,-132.5"/>
<text text-anchor="start" x="397.7015" y="-145.3" font-family="Arial Bold" font-size="18.00" fill="#000000">Yakusyoku</text>
<text text-anchor="start" x="485.7305" y="-145.3" font-family="Arial" font-size="14.00" fill="#000000">    </text>
<text text-anchor="start" x="519.9353" y="-145.3" font-family="Arial" font-size="14.00" fill="#666666">[BASE TABLE]</text>
<polygon fill="none" stroke="#000000" points="391,-102.5 391,-132.5 620,-132.5 620,-102.5 391,-102.5"/>
<text text-anchor="start" x="398" y="-113.9" font-family="Arial" font-size="14.00" fill="#000000">id    </text>
<text text-anchor="start" x="443.094" y="-113.9" font-family="Arial" font-size="14.00" fill="#666666">[int unsigned]</text>
<polygon fill="none" stroke="#000000" points="391,-72.5 391,-102.5 620,-102.5 620,-72.5 391,-72.5"/>
<text text-anchor="start" x="398" y="-83.9" font-family="Arial" font-size="14.00" fill="#000000">name    </text>
<text text-anchor="start" x="467.2132" y="-83.9" font-family="Arial" font-size="14.00" fill="#666666">[varchar(50)]</text>
<polygon fill="none" stroke="#000000" points="391,-42.5 391,-72.5 620,-72.5 620,-42.5 391,-42.5"/>
<text text-anchor="start" x="398" y="-53.9" font-family="Arial" font-size="14.00" fill="#000000">teate    </text>
<text text-anchor="start" x="463.3338" y="-53.9" font-family="Arial" font-size="14.00" fill="#666666">[int]</text>
</g>
<!-- Syain&#45;&gt;Yakusyoku -->
<g id="edge4" class="edge">
<title>Syain:yakusyokuId&#45;&gt;Yakusyoku:id</title>
<path fill="none" stroke="#000000" d="M449.0691,-426.8549C515.2551,-417.8044 473.2648,-315.5297 439,-247 427.0743,-223.1486 402.9257,-234.8514 391,-211 372.4158,-173.8316 349.4444,-117.5 391,-117.5"/>
<polygon fill="#000000" stroke="#000000" points="448.9795,-426.8605 438.7122,-423.0092 443.9898,-427.1803 439,-427.5 439,-427.5 439,-427.5 443.9898,-427.1803 439.2878,-431.9908 448.9795,-426.8605 448.9795,-426.8605"/>
<text text-anchor="start" x="446.321" y="-437.5" font-family="Arial" font-size="10.00" fill="#000000">FOREIGN KEY (yakusyokuId) REFERENCES Yakusyoku (id)</text>
</g>
<!-- Kyuyo_details -->
<g id="node2" class="node">
<title>Kyuyo_details</title>
<polygon fill="#efefef" stroke="transparent" points="54,-1082.5 54,-1117.5 307,-1117.5 307,-1082.5 54,-1082.5"/>
<polygon fill="none" stroke="#000000" points="54,-1082.5 54,-1117.5 307,-1117.5 307,-1082.5 54,-1082.5"/>
<text text-anchor="start" x="60.7" y="-1095.3" font-family="Arial Bold" font-size="18.00" fill="#000000">Kyuyo_details</text>
<text text-anchor="start" x="172.732" y="-1095.3" font-family="Arial" font-size="14.00" fill="#000000">    </text>
<text text-anchor="start" x="206.9368" y="-1095.3" font-family="Arial" font-size="14.00" fill="#666666">[BASE TABLE]</text>
<polygon fill="none" stroke="#000000" points="54,-1052.5 54,-1082.5 307,-1082.5 307,-1052.5 54,-1052.5"/>
<text text-anchor="start" x="61" y="-1063.9" font-family="Arial" font-size="14.00" fill="#000000">id    </text>
<text text-anchor="start" x="106.094" y="-1063.9" font-family="Arial" font-size="14.00" fill="#666666">[int unsigned]</text>
<polygon fill="none" stroke="#000000" points="54,-1022.5 54,-1052.5 307,-1052.5 307,-1022.5 54,-1022.5"/>
<text text-anchor="start" x="61" y="-1033.9" font-family="Arial" font-size="14.00" fill="#000000">kihonkyu    </text>
<text text-anchor="start" x="150.4418" y="-1033.9" font-family="Arial" font-size="14.00" fill="#666666">[int]</text>
<polygon fill="none" stroke="#000000" points="54,-992.5 54,-1022.5 307,-1022.5 307,-992.5 54,-992.5"/>
<text text-anchor="start" x="61" y="-1003.9" font-family="Arial" font-size="14.00" fill="#000000">yakusyokuTeate    </text>
<text text-anchor="start" x="197.1262" y="-1003.9" font-family="Arial" font-size="14.00" fill="#666666">[int]</text>
<polygon fill="none" stroke="#000000" points="54,-962.5 54,-992.5 307,-992.5 307,-962.5 54,-962.5"/>
<text text-anchor="start" x="61" y="-973.9" font-family="Arial" font-size="14.00" fill="#000000">tukinTeate    </text>
<text text-anchor="start" x="160.5582" y="-973.9" font-family="Arial" font-size="14.00" fill="#666666">[int]</text>
<polygon fill="none" stroke="#000000" points="54,-932.5 54,-962.5 307,-962.5 307,-932.5 54,-932.5"/>
<text text-anchor="start" x="61" y="-943.9" font-family="Arial" font-size="14.00" fill="#000000">zangyoId    </text>
<text text-anchor="start" x="152.0084" y="-943.9" font-family="Arial" font-size="14.00" fill="#666666">[int unsigned]</text>
<polygon fill="none" stroke="#000000" points="54,-902.5 54,-932.5 307,-932.5 307,-902.5 54,-902.5"/>
<text text-anchor="start" x="61" y="-913.9" font-family="Arial" font-size="14.00" fill="#000000">zyuminzei    </text>
<text text-anchor="start" x="157.4264" y="-913.9" font-family="Arial" font-size="14.00" fill="#666666">[int]</text>
<polygon fill="none" stroke="#000000" points="54,-872.5 54,-902.5 307,-902.5 307,-872.5 54,-872.5"/>
<text text-anchor="start" x="61" y="-883.9" font-family="Arial" font-size="14.00" fill="#000000">syakaihoken    </text>
<text text-anchor="start" x="173.007" y="-883.9" font-family="Arial" font-size="14.00" fill="#666666">[int]</text>
<polygon fill="none" stroke="#000000" points="54,-842.5 54,-872.5 307,-872.5 307,-842.5 54,-842.5"/>
<text text-anchor="start" x="61" y="-853.9" font-family="Arial" font-size="14.00" fill="#000000">syotokuzei    </text>
<text text-anchor="start" x="161.3324" y="-853.9" font-family="Arial" font-size="14.00" fill="#666666">[int]</text>
<polygon fill="none" stroke="#000000" points="54,-812.5 54,-842.5 307,-842.5 307,-812.5 54,-812.5"/>
<text text-anchor="start" x="61" y="-823.9" font-family="Arial" font-size="14.00" fill="#000000">syainId    </text>
<text text-anchor="start" x="139.5498" y="-823.9" font-family="Arial" font-size="14.00" fill="#666666">[int unsigned]</text>
<polygon fill="none" stroke="#000000" points="54,-782.5 54,-812.5 307,-812.5 307,-782.5 54,-782.5"/>
<text text-anchor="start" x="61" y="-793.9" font-family="Arial" font-size="14.00" fill="#000000">siharaibi    </text>
<text text-anchor="start" x="147.3156" y="-793.9" font-family="Arial" font-size="14.00" fill="#666666">[date]</text>
<polygon fill="none" stroke="#000000" points="54,-752.5 54,-782.5 307,-782.5 307,-752.5 54,-752.5"/>
<text text-anchor="start" x="61" y="-763.9" font-family="Arial" font-size="14.00" fill="#000000">createdAt    </text>
<text text-anchor="start" x="155.1136" y="-763.9" font-family="Arial" font-size="14.00" fill="#666666">[date]</text>
<polygon fill="none" stroke="#000000" points="54,-722.5 54,-752.5 307,-752.5 307,-722.5 54,-722.5"/>
<text text-anchor="start" x="61" y="-733.9" font-family="Arial" font-size="14.00" fill="#000000">updatedAt    </text>
<text text-anchor="start" x="159.0182" y="-733.9" font-family="Arial" font-size="14.00" fill="#666666">[date]</text>
<polygon fill="none" stroke="#000000" points="54,-692.5 54,-722.5 307,-722.5 307,-692.5 54,-692.5"/>
<text text-anchor="start" x="61" y="-703.9" font-family="Arial" font-size="14.00" fill="#000000">deletedAt    </text>
<text text-anchor="start" x="154.3422" y="-703.9" font-family="Arial" font-size="14.00" fill="#666666">[date]</text>
</g>
<!-- Kyuyo_details&#45;&gt;Syain -->
<g id="edge1" class="edge">
<title>Kyuyo_details:syainId&#45;&gt;Syain:id</title>
<path fill="none" stroke="#000000" d="M317.312,-826.8035C381.9926,-817.4644 342.4795,-716.294 307,-650 293.3895,-624.5686 266.6105,-639.4314 253,-614 232.7625,-576.186 210.1111,-517.5 253,-517.5"/>
<polygon fill="#000000" stroke="#000000" points="316.9773,-826.826 306.6967,-823.0102 311.9886,-827.163 307,-827.5 307,-827.5 307,-827.5 311.9886,-827.163 307.3033,-831.9898 316.9773,-826.826 316.9773,-826.826"/>
<text text-anchor="start" x="314.22" y="-837.5" font-family="Arial" font-size="10.00" fill="#000000">FOREIGN KEY (syainId) REFERENCES Syain (id)</text>
</g>
<!-- Zangyo -->
<g id="node3" class="node">
<title>Zangyo</title>
<polygon fill="#efefef" stroke="transparent" points="411,-977.5 411,-1012.5 612,-1012.5 612,-977.5 411,-977.5"/>
<polygon fill="none" stroke="#000000" points="411,-977.5 411,-1012.5 612,-1012.5 612,-977.5 411,-977.5"/>
<text text-anchor="start" x="417.7055" y="-990.3" font-family="Arial Bold" font-size="18.00" fill="#000000">Zangyo</text>
<text text-anchor="start" x="477.7265" y="-990.3" font-family="Arial" font-size="14.00" fill="#000000">    </text>
<text text-anchor="start" x="511.9313" y="-990.3" font-family="Arial" font-size="14.00" fill="#666666">[BASE TABLE]</text>
<polygon fill="none" stroke="#000000" points="411,-947.5 411,-977.5 612,-977.5 612,-947.5 411,-947.5"/>
<text text-anchor="start" x="418" y="-958.9" font-family="Arial" font-size="14.00" fill="#000000">id    </text>
<text text-anchor="start" x="463.094" y="-958.9" font-family="Arial" font-size="14.00" fill="#666666">[int unsigned]</text>
<polygon fill="none" stroke="#000000" points="411,-917.5 411,-947.5 612,-947.5 612,-917.5 411,-917.5"/>
<text text-anchor="start" x="418" y="-928.9" font-family="Arial" font-size="14.00" fill="#000000">tuzyo    </text>
<text text-anchor="start" x="485.6606" y="-928.9" font-family="Arial" font-size="14.00" fill="#666666">[int]</text>
<polygon fill="none" stroke="#000000" points="411,-887.5 411,-917.5 612,-917.5 612,-887.5 411,-887.5"/>
<text text-anchor="start" x="418" y="-898.9" font-family="Arial" font-size="14.00" fill="#000000">kyuzitu    </text>
<text text-anchor="start" x="495.7672" y="-898.9" font-family="Arial" font-size="14.00" fill="#666666">[int]</text>
<polygon fill="none" stroke="#000000" points="411,-857.5 411,-887.5 612,-887.5 612,-857.5 411,-857.5"/>
<text text-anchor="start" x="418" y="-868.9" font-family="Arial" font-size="14.00" fill="#000000">sinya    </text>
<text text-anchor="start" x="484.8766" y="-868.9" font-family="Arial" font-size="14.00" fill="#666666">[int]</text>
<polygon fill="none" stroke="#000000" points="411,-827.5 411,-857.5 612,-857.5 612,-827.5 411,-827.5"/>
<text text-anchor="start" x="418" y="-838.9" font-family="Arial" font-size="14.00" fill="#000000">syainId    </text>
<text text-anchor="start" x="496.5498" y="-838.9" font-family="Arial" font-size="14.00" fill="#666666">[int unsigned]</text>
<polygon fill="none" stroke="#000000" points="411,-797.5 411,-827.5 612,-827.5 612,-797.5 411,-797.5"/>
<text text-anchor="start" x="418" y="-808.9" font-family="Arial" font-size="14.00" fill="#000000">nengetu    </text>
<text text-anchor="start" x="502.791" y="-808.9" font-family="Arial" font-size="14.00" fill="#666666">[date]</text>
</g>
<!-- Zangyo&#45;&gt;Syain -->
<g id="edge2" class="edge">
<title>Zangyo:syainId&#45;&gt;Syain:id</title>
<path fill="none" stroke="#000000" d="M400.8368,-841.8821C281.8684,-826.2056 580.2984,-517.5 439,-517.5"/>
<polygon fill="#000000" stroke="#000000" points="401.0184,-841.893 410.7269,-846.9917 406.0092,-842.1965 411,-842.5 411,-842.5 411,-842.5 406.0092,-842.1965 411.2731,-838.0083 401.0184,-841.893 401.0184,-841.893"/>
<text text-anchor="start" x="418.22" y="-852.5" font-family="Arial" font-size="10.00" fill="#000000">FOREIGN KEY (syainId) REFERENCES Syain (id)</text>
</g>
</g>
</svg>
