<?xml version="1.0" encoding="UTF-8" standalone="no"?>
<!DOCTYPE svg PUBLIC "-//W3C//DTD SVG 1.1//EN"
 "http://www.w3.org/Graphics/SVG/1.1/DTD/svg11.dtd">
<!-- Generated by graphviz version 2.40.1 (20161225.0304)
 -->
<!-- Title: Yakusyoku Pages: 1 -->
<svg width="560pt" height="622pt"
 viewBox="0.00 0.00 559.50 622.00" xmlns="http://www.w3.org/2000/svg" xmlns:xlink="http://www.w3.org/1999/xlink">
<g id="graph0" class="graph" transform="scale(1 1) rotate(0) translate(4 618)">
<title>Yakusyoku</title>
<polygon fill="#ffffff" stroke="transparent" points="-4,4 -4,-618 555.5,-618 555.5,4 -4,4"/>
<!-- Yakusyoku -->
<g id="node1" class="node">
<title>Yakusyoku</title>
<polygon fill="#efefef" stroke="transparent" points="277,-135.5 277,-170.5 506,-170.5 506,-135.5 277,-135.5"/>
<polygon fill="none" stroke="#000000" points="277,-135.5 277,-170.5 506,-170.5 506,-135.5 277,-135.5"/>
<text text-anchor="start" x="283.7015" y="-148.3" font-family="Arial Bold" font-size="18.00" fill="#000000">Yakusyoku</text>
<text text-anchor="start" x="371.7305" y="-148.3" font-family="Arial" font-size="14.00" fill="#000000">    </text>
<text text-anchor="start" x="405.9353" y="-148.3" font-family="Arial" font-size="14.00" fill="#666666">[BASE TABLE]</text>
<polygon fill="none" stroke="#000000" points="277,-105.5 277,-135.5 506,-135.5 506,-105.5 277,-105.5"/>
<text text-anchor="start" x="284" y="-116.9" font-family="Arial" font-size="14.00" fill="#000000">id </text>
<text text-anchor="start" x="298.7798" y="-116.9" font-family="Arial" font-size="14.00" fill="#666666">[int unsigned]</text>
<polygon fill="none" stroke="#000000" points="277,-75.5 277,-105.5 506,-105.5 506,-75.5 277,-75.5"/>
<text text-anchor="start" x="284" y="-86.9" font-family="Arial" font-size="14.00" fill="#000000">name </text>
<text text-anchor="start" x="322.899" y="-86.9" font-family="Arial" font-size="14.00" fill="#666666">[varchar(50)]</text>
<polygon fill="none" stroke="#000000" points="277,-45.5 277,-75.5 506,-75.5 506,-45.5 277,-45.5"/>
<text text-anchor="start" x="284" y="-56.9" font-family="Arial" font-size="14.00" fill="#000000">teate </text>
<text text-anchor="start" x="319.0196" y="-56.9" font-family="Arial" font-size="14.00" fill="#666666">[int]</text>
<polygon fill="none" stroke="#000000" stroke-width="3" points="275,-44.5 275,-172.5 507,-172.5 507,-44.5 275,-44.5"/>
</g>
<!-- Syain -->
<g id="node2" class="node">
<title>Syain</title>
<polygon fill="#efefef" stroke="transparent" points="287,-535.5 287,-570.5 496,-570.5 496,-535.5 287,-535.5"/>
<polygon fill="none" stroke="#000000" points="287,-535.5 287,-570.5 496,-570.5 496,-535.5 287,-535.5"/>
<text text-anchor="start" x="305.2106" y="-548.3" font-family="Arial Bold" font-size="18.00" fill="#000000">Syain</text>
<text text-anchor="start" x="350.2214" y="-548.3" font-family="Arial" font-size="14.00" fill="#000000">    </text>
<text text-anchor="start" x="384.4262" y="-548.3" font-family="Arial" font-size="14.00" fill="#666666">[BASE TABLE]</text>
<polygon fill="none" stroke="#000000" points="287,-505.5 287,-535.5 496,-535.5 496,-505.5 287,-505.5"/>
<text text-anchor="start" x="294" y="-516.9" font-family="Arial" font-size="14.00" fill="#000000">id    </text>
<text text-anchor="start" x="339.094" y="-516.9" font-family="Arial" font-size="14.00" fill="#666666">[int unsigned]</text>
<polygon fill="none" stroke="#000000" points="287,-475.5 287,-505.5 496,-505.5 496,-475.5 287,-475.5"/>
<text text-anchor="start" x="294" y="-486.9" font-family="Arial" font-size="14.00" fill="#000000">name    </text>
<text text-anchor="start" x="363.2132" y="-486.9" font-family="Arial" font-size="14.00" fill="#666666">[varchar(50)]</text>
<polygon fill="none" stroke="#000000" points="287,-445.5 287,-475.5 496,-475.5 496,-445.5 287,-445.5"/>
<text text-anchor="start" x="294" y="-456.9" font-family="Arial" font-size="14.00" fill="#000000">bumonId    </text>
<text text-anchor="start" x="382.669" y="-456.9" font-family="Arial" font-size="14.00" fill="#666666">[int unsigned]</text>
<polygon fill="none" stroke="#000000" points="287,-415.5 287,-445.5 496,-445.5 496,-415.5 287,-415.5"/>
<text text-anchor="start" x="293.8689" y="-426.9" font-family="Arial" font-size="14.00" fill="#000000">yakusyokuId    </text>
<text text-anchor="start" x="405.8773" y="-426.9" font-family="Arial" font-size="14.00" fill="#666666">[int unsigned]</text>
<polygon fill="none" stroke="#000000" points="287,-385.5 287,-415.5 496,-415.5 496,-385.5 287,-385.5"/>
<text text-anchor="start" x="294" y="-396.9" font-family="Arial" font-size="14.00" fill="#000000">kihonkyu    </text>
<text text-anchor="start" x="383.4418" y="-396.9" font-family="Arial" font-size="14.00" fill="#666666">[int]</text>
<polygon fill="none" stroke="#000000" points="287,-355.5 287,-385.5 496,-385.5 496,-355.5 287,-355.5"/>
<text text-anchor="start" x="294" y="-366.9" font-family="Arial" font-size="14.00" fill="#000000">nyusyabi    </text>
<text text-anchor="start" x="383.4418" y="-366.9" font-family="Arial" font-size="14.00" fill="#666666">[date]</text>
<polygon fill="none" stroke="#000000" points="287,-325.5 287,-355.5 496,-355.5 496,-325.5 287,-325.5"/>
<text text-anchor="start" x="294" y="-336.9" font-family="Arial" font-size="14.00" fill="#000000">taisyabi    </text>
<text text-anchor="start" x="375.6564" y="-336.9" font-family="Arial" font-size="14.00" fill="#666666">[date]</text>
<polygon fill="none" stroke="#000000" points="287,-295.5 287,-325.5 496,-325.5 496,-295.5 287,-295.5"/>
<text text-anchor="start" x="294" y="-306.9" font-family="Arial" font-size="14.00" fill="#000000">updatedAt    </text>
<text text-anchor="start" x="392.0182" y="-306.9" font-family="Arial" font-size="14.00" fill="#666666">[date]</text>
</g>
<!-- Syain&#45;&gt;Yakusyoku -->
<g id="edge1" class="edge">
<title>Syain:yakusyokuId&#45;&gt;Yakusyoku:id</title>
<path fill="none" stroke="#000000" d="M276.9582,-428.183C217.2632,-399.815 211.5754,-120.5 277,-120.5"/>
<polygon fill="#000000" stroke="#000000" points="277.256,-428.2516 285.9882,-434.8848 282.128,-429.3758 287,-430.5 287,-430.5 287,-430.5 282.128,-429.3758 288.0118,-426.1152 277.256,-428.2516 277.256,-428.2516"/>
<text text-anchor="start" x="7.321" y="-440.5" font-family="Arial" font-size="10.00" fill="#000000">FOREIGN KEY (yakusyokuId) REFERENCES Yakusyoku (id)</text>
</g>
</g>
</svg>
