<?xml version="1.0" encoding="UTF-8" standalone="no"?>
<!DOCTYPE svg PUBLIC "-//W3C//DTD SVG 1.1//EN"
 "http://www.w3.org/Graphics/SVG/1.1/DTD/svg11.dtd">
<!-- Generated by graphviz version 2.40.1 (20161225.0304)
 -->
<!-- Title: Zangyo Pages: 1 -->
<svg width="560pt" height="1259pt"
 viewBox="0.00 0.00 559.50 1259.00" xmlns="http://www.w3.org/2000/svg" xmlns:xlink="http://www.w3.org/1999/xlink">
<g id="graph0" class="graph" transform="scale(1 1) rotate(0) translate(4 1255)">
<title>Zangyo</title>
<polygon fill="#ffffff" stroke="transparent" points="-4,4 -4,-1255 555.5,-1255 555.5,4 -4,4"/>
<!-- Zangyo -->
<g id="node1" class="node">
<title>Zangyo</title>
<polygon fill="#efefef" stroke="transparent" points="282,-622.5 282,-657.5 483,-657.5 483,-622.5 282,-622.5"/>
<polygon fill="none" stroke="#000000" points="282,-622.5 282,-657.5 483,-657.5 483,-622.5 282,-622.5"/>
<text text-anchor="start" x="288.7055" y="-635.3" font-family="Arial Bold" font-size="18.00" fill="#000000">Zangyo</text>
<text text-anchor="start" x="348.7265" y="-635.3" font-family="Arial" font-size="14.00" fill="#000000">    </text>
<text text-anchor="start" x="382.9313" y="-635.3" font-family="Arial" font-size="14.00" fill="#666666">[BASE TABLE]</text>
<polygon fill="none" stroke="#000000" points="282,-592.5 282,-622.5 483,-622.5 483,-592.5 282,-592.5"/>
<text text-anchor="start" x="289" y="-603.9" font-family="Arial" font-size="14.00" fill="#000000">id </text>
<text text-anchor="start" x="303.7798" y="-603.9" font-family="Arial" font-size="14.00" fill="#666666">[int unsigned]</text>
<polygon fill="none" stroke="#000000" points="282,-562.5 282,-592.5 483,-592.5 483,-562.5 282,-562.5"/>
<text text-anchor="start" x="289" y="-573.9" font-family="Arial" font-size="14.00" fill="#000000">tuzyo </text>
<text text-anchor="start" x="326.3464" y="-573.9" font-family="Arial" font-size="14.00" fill="#666666">[int]</text>
<polygon fill="none" stroke="#000000" points="282,-532.5 282,-562.5 483,-562.5 483,-532.5 282,-532.5"/>
<text text-anchor="start" x="289" y="-543.9" font-family="Arial" font-size="14.00" fill="#000000">kyuzitu </text>
<text text-anchor="start" x="336.453" y="-543.9" font-family="Arial" font-size="14.00" fill="#666666">[int]</text>
<polygon fill="none" stroke="#000000" points="282,-502.5 282,-532.5 483,-532.5 483,-502.5 282,-502.5"/>
<text text-anchor="start" x="289" y="-513.9" font-family="Arial" font-size="14.00" fill="#000000">sinya </text>
<text text-anchor="start" x="325.5624" y="-513.9" font-family="Arial" font-size="14.00" fill="#666666">[int]</text>
<polygon fill="none" stroke="#000000" points="282,-472.5 282,-502.5 483,-502.5 483,-472.5 282,-472.5"/>
<text text-anchor="start" x="289" y="-483.9" font-family="Arial" font-size="14.00" fill="#000000">syainId </text>
<text text-anchor="start" x="337.2356" y="-483.9" font-family="Arial" font-size="14.00" fill="#666666">[int unsigned]</text>
<polygon fill="none" stroke="#000000" points="282,-442.5 282,-472.5 483,-472.5 483,-442.5 282,-442.5"/>
<text text-anchor="start" x="289" y="-453.9" font-family="Arial" font-size="14.00" fill="#000000">nengetu </text>
<text text-anchor="start" x="343.4768" y="-453.9" font-family="Arial" font-size="14.00" fill="#666666">[date]</text>
<polygon fill="none" stroke="#000000" stroke-width="3" points="280,-441.5 280,-659.5 484,-659.5 484,-441.5 280,-441.5"/>
</g>
<!-- Syain -->
<g id="node3" class="node">
<title>Syain</title>
<polygon fill="#efefef" stroke="transparent" points="278,-282.5 278,-317.5 487,-317.5 487,-282.5 278,-282.5"/>
<polygon fill="none" stroke="#000000" points="278,-282.5 278,-317.5 487,-317.5 487,-282.5 278,-282.5"/>
<text text-anchor="start" x="296.2106" y="-295.3" font-family="Arial Bold" font-size="18.00" fill="#000000">Syain</text>
<text text-anchor="start" x="341.2214" y="-295.3" font-family="Arial" font-size="14.00" fill="#000000">    </text>
<text text-anchor="start" x="375.4262" y="-295.3" font-family="Arial" font-size="14.00" fill="#666666">[BASE TABLE]</text>
<polygon fill="none" stroke="#000000" points="278,-252.5 278,-282.5 487,-282.5 487,-252.5 278,-252.5"/>
<text text-anchor="start" x="285" y="-263.9" font-family="Arial" font-size="14.00" fill="#000000">id    </text>
<text text-anchor="start" x="330.094" y="-263.9" font-family="Arial" font-size="14.00" fill="#666666">[int unsigned]</text>
<polygon fill="none" stroke="#000000" points="278,-222.5 278,-252.5 487,-252.5 487,-222.5 278,-222.5"/>
<text text-anchor="start" x="285" y="-233.9" font-family="Arial" font-size="14.00" fill="#000000">name    </text>
<text text-anchor="start" x="354.2132" y="-233.9" font-family="Arial" font-size="14.00" fill="#666666">[varchar(50)]</text>
<polygon fill="none" stroke="#000000" points="278,-192.5 278,-222.5 487,-222.5 487,-192.5 278,-192.5"/>
<text text-anchor="start" x="285" y="-203.9" font-family="Arial" font-size="14.00" fill="#000000">bumonId    </text>
<text text-anchor="start" x="373.669" y="-203.9" font-family="Arial" font-size="14.00" fill="#666666">[int unsigned]</text>
<polygon fill="none" stroke="#000000" points="278,-162.5 278,-192.5 487,-192.5 487,-162.5 278,-162.5"/>
<text text-anchor="start" x="284.8689" y="-173.9" font-family="Arial" font-size="14.00" fill="#000000">yakusyokuId    </text>
<text text-anchor="start" x="396.8773" y="-173.9" font-family="Arial" font-size="14.00" fill="#666666">[int unsigned]</text>
<polygon fill="none" stroke="#000000" points="278,-132.5 278,-162.5 487,-162.5 487,-132.5 278,-132.5"/>
<text text-anchor="start" x="285" y="-143.9" font-family="Arial" font-size="14.00" fill="#000000">kihonkyu    </text>
<text text-anchor="start" x="374.4418" y="-143.9" font-family="Arial" font-size="14.00" fill="#666666">[int]</text>
<polygon fill="none" stroke="#000000" points="278,-102.5 278,-132.5 487,-132.5 487,-102.5 278,-102.5"/>
<text text-anchor="start" x="285" y="-113.9" font-family="Arial" font-size="14.00" fill="#000000">nyusyabi    </text>
<text text-anchor="start" x="374.4418" y="-113.9" font-family="Arial" font-size="14.00" fill="#666666">[date]</text>
<polygon fill="none" stroke="#000000" points="278,-72.5 278,-102.5 487,-102.5 487,-72.5 278,-72.5"/>
<text text-anchor="start" x="285" y="-83.9" font-family="Arial" font-size="14.00" fill="#000000">taisyabi    </text>
<text text-anchor="start" x="366.6564" y="-83.9" font-family="Arial" font-size="14.00" fill="#666666">[date]</text>
<polygon fill="none" stroke="#000000" points="278,-42.5 278,-72.5 487,-72.5 487,-42.5 278,-42.5"/>
<text text-anchor="start" x="285" y="-53.9" font-family="Arial" font-size="14.00" fill="#000000">updatedAt    </text>
<text text-anchor="start" x="383.0182" y="-53.9" font-family="Arial" font-size="14.00" fill="#666666">[date]</text>
</g>
<!-- Zangyo&#45;&gt;Syain -->
<g id="edge2" class="edge">
<title>Zangyo:syainId&#45;&gt;Syain:id</title>
<path fill="none" stroke="#000000" d="M271.767,-486.6591C184.0499,-471.8888 183.7396,-267.5 278,-267.5"/>
<polygon fill="#000000" stroke="#000000" points="272.0336,-486.6809 281.6314,-491.9849 277.0168,-487.0904 282,-487.5 282,-487.5 282,-487.5 277.0168,-487.0904 282.3686,-483.0151 272.0336,-486.6809 272.0336,-486.6809"/>
<text text-anchor="start" x="50.22" y="-497.5" font-family="Arial" font-size="10.00" fill="#000000">FOREIGN KEY (syainId) REFERENCES Syain (id)</text>
</g>
<!-- Kyuyo_details -->
<g id="node2" class="node">
<title>Kyuyo_details</title>
<polygon fill="#efefef" stroke="transparent" points="256,-1172.5 256,-1207.5 509,-1207.5 509,-1172.5 256,-1172.5"/>
<polygon fill="none" stroke="#000000" points="256,-1172.5 256,-1207.5 509,-1207.5 509,-1172.5 256,-1172.5"/>
<text text-anchor="start" x="262.7" y="-1185.3" font-family="Arial Bold" font-size="18.00" fill="#000000">Kyuyo_details</text>
<text text-anchor="start" x="374.732" y="-1185.3" font-family="Arial" font-size="14.00" fill="#000000">    </text>
<text text-anchor="start" x="408.9368" y="-1185.3" font-family="Arial" font-size="14.00" fill="#666666">[BASE TABLE]</text>
<polygon fill="none" stroke="#000000" points="256,-1142.5 256,-1172.5 509,-1172.5 509,-1142.5 256,-1142.5"/>
<text text-anchor="start" x="263" y="-1153.9" font-family="Arial" font-size="14.00" fill="#000000">id    </text>
<text text-anchor="start" x="308.094" y="-1153.9" font-family="Arial" font-size="14.00" fill="#666666">[int unsigned]</text>
<polygon fill="none" stroke="#000000" points="256,-1112.5 256,-1142.5 509,-1142.5 509,-1112.5 256,-1112.5"/>
<text text-anchor="start" x="263" y="-1123.9" font-family="Arial" font-size="14.00" fill="#000000">kihonkyu    </text>
<text text-anchor="start" x="352.4418" y="-1123.9" font-family="Arial" font-size="14.00" fill="#666666">[int]</text>
<polygon fill="none" stroke="#000000" points="256,-1082.5 256,-1112.5 509,-1112.5 509,-1082.5 256,-1082.5"/>
<text text-anchor="start" x="263" y="-1093.9" font-family="Arial" font-size="14.00" fill="#000000">yakusyokuTeate    </text>
<text text-anchor="start" x="399.1262" y="-1093.9" font-family="Arial" font-size="14.00" fill="#666666">[int]</text>
<polygon fill="none" stroke="#000000" points="256,-1052.5 256,-1082.5 509,-1082.5 509,-1052.5 256,-1052.5"/>
<text text-anchor="start" x="263" y="-1063.9" font-family="Arial" font-size="14.00" fill="#000000">tukinTeate    </text>
<text text-anchor="start" x="362.5582" y="-1063.9" font-family="Arial" font-size="14.00" fill="#666666">[int]</text>
<polygon fill="none" stroke="#000000" points="256,-1022.5 256,-1052.5 509,-1052.5 509,-1022.5 256,-1022.5"/>
<text text-anchor="start" x="263" y="-1033.9" font-family="Arial" font-size="14.00" fill="#000000">zangyoId    </text>
<text text-anchor="start" x="354.0084" y="-1033.9" font-family="Arial" font-size="14.00" fill="#666666">[int unsigned]</text>
<polygon fill="none" stroke="#000000" points="256,-992.5 256,-1022.5 509,-1022.5 509,-992.5 256,-992.5"/>
<text text-anchor="start" x="263" y="-1003.9" font-family="Arial" font-size="14.00" fill="#000000">zyuminzei    </text>
<text text-anchor="start" x="359.4264" y="-1003.9" font-family="Arial" font-size="14.00" fill="#666666">[int]</text>
<polygon fill="none" stroke="#000000" points="256,-962.5 256,-992.5 509,-992.5 509,-962.5 256,-962.5"/>
<text text-anchor="start" x="263" y="-973.9" font-family="Arial" font-size="14.00" fill="#000000">syakaihoken    </text>
<text text-anchor="start" x="375.007" y="-973.9" font-family="Arial" font-size="14.00" fill="#666666">[int]</text>
<polygon fill="none" stroke="#000000" points="256,-932.5 256,-962.5 509,-962.5 509,-932.5 256,-932.5"/>
<text text-anchor="start" x="263" y="-943.9" font-family="Arial" font-size="14.00" fill="#000000">syotokuzei    </text>
<text text-anchor="start" x="363.3324" y="-943.9" font-family="Arial" font-size="14.00" fill="#666666">[int]</text>
<polygon fill="none" stroke="#000000" points="256,-902.5 256,-932.5 509,-932.5 509,-902.5 256,-902.5"/>
<text text-anchor="start" x="263" y="-913.9" font-family="Arial" font-size="14.00" fill="#000000">syainId    </text>
<text text-anchor="start" x="341.5498" y="-913.9" font-family="Arial" font-size="14.00" fill="#666666">[int unsigned]</text>
<polygon fill="none" stroke="#000000" points="256,-872.5 256,-902.5 509,-902.5 509,-872.5 256,-872.5"/>
<text text-anchor="start" x="263" y="-883.9" font-family="Arial" font-size="14.00" fill="#000000">siharaibi    </text>
<text text-anchor="start" x="349.3156" y="-883.9" font-family="Arial" font-size="14.00" fill="#666666">[date]</text>
<polygon fill="none" stroke="#000000" points="256,-842.5 256,-872.5 509,-872.5 509,-842.5 256,-842.5"/>
<text text-anchor="start" x="263" y="-853.9" font-family="Arial" font-size="14.00" fill="#000000">createdAt    </text>
<text text-anchor="start" x="357.1136" y="-853.9" font-family="Arial" font-size="14.00" fill="#666666">[date]</text>
<polygon fill="none" stroke="#000000" points="256,-812.5 256,-842.5 509,-842.5 509,-812.5 256,-812.5"/>
<text text-anchor="start" x="263" y="-823.9" font-family="Arial" font-size="14.00" fill="#000000">updatedAt    </text>
<text text-anchor="start" x="361.0182" y="-823.9" font-family="Arial" font-size="14.00" fill="#666666">[date]</text>
<polygon fill="none" stroke="#000000" points="256,-782.5 256,-812.5 509,-812.5 509,-782.5 256,-782.5"/>
<text text-anchor="start" x="263" y="-793.9" font-family="Arial" font-size="14.00" fill="#000000">deletedAt    </text>
<text text-anchor="start" x="356.3422" y="-793.9" font-family="Arial" font-size="14.00" fill="#666666">[date]</text>
</g>
<!-- Kyuyo_details&#45;&gt;Zangyo -->
<g id="edge1" class="edge">
<title>Kyuyo_details:zangyoId&#45;&gt;Zangyo:id</title>
<path fill="none" stroke="#000000" d="M246.0973,-1035.8564C162.2399,-1006.9872 189.7289,-607.5 282,-607.5"/>
<polygon fill="#000000" stroke="#000000" points="246.135,-1035.8625 255.2631,-1041.9393 251.0675,-1036.6813 256,-1037.5 256,-1037.5 256,-1037.5 251.0675,-1036.6813 256.7369,-1033.0607 246.135,-1035.8625 246.135,-1035.8625"/>
<text text-anchor="start" x="6.601" y="-1047.5" font-family="Arial" font-size="10.00" fill="#000000">FOREIGN KEY (zangyoId) REFERENCES Zangyo (id)</text>
</g>
</g>
</svg>
